<?xml version="1.0" encoding="UTF-8"?>
<svg version="1.1" xmlns="http://www.w3.org/2000/svg" width="460" height="460">
<path d="M0 0 C0.69996094 0.16580566 1.39992188 0.33161133 2.12109375 0.50244141 C13.1622925 3.18423716 13.1622925 3.18423716 17.40234375 5.06640625 C20.95244683 6.34230796 24.52093279 6.55219379 28.25 6.875 C39.53005068 8.04913167 47.89064308 11.89064308 56 20 C57.859544 20.51481516 57.859544 20.51481516 60.0078125 20.7890625 C82.47422441 24.44416207 101.01190073 34.70142213 115 53.0625 C118.14524078 57.46092266 120.58663681 61.99755763 123 66.8125 C125.62326637 72.00523528 128.05034691 75.43492122 132.98828125 78.578125 C141.08534672 84.30109943 145.5808806 93.64607165 148 103 C148.39650188 105.84612307 148.63790406 108.69923278 148.875 111.5625 C149.46144453 118.52672116 151.25055921 122.94668729 155.125 128.86328125 C167.97491013 150.36011008 169.01234027 179.87232826 163.8515625 203.6953125 C163.26668241 205.96507652 162.60990694 208.21714548 161.89453125 210.44921875 C160.90467288 214.37839457 160.90566718 217.64603891 161.0625 221.6875 C161.27345263 234.29955737 158.17049603 247.34391733 149.26953125 256.84765625 C148.70621094 257.35167969 148.14289063 257.85570312 147.5625 258.375 C144.05504826 261.51365928 142.10682542 265.23155985 140 269.375 C129.55348929 289.78427181 112.84948792 303.91834779 91 311 C89.91912109 311.35191406 89.91912109 311.35191406 88.81640625 311.7109375 C85.10839075 312.70841535 81.55415542 313.03924609 77.7265625 313.125 C66.64984318 313.02428486 66.64984318 313.02428486 57.5078125 318.625 C55.72733753 320.24864557 54.34603242 320.59376062 52 321 C52.45890625 321.4846875 52.9178125 321.969375 53.390625 322.46875 C60.13608498 329.83773989 63.5339358 335.93301336 64 346 C64.85464844 346.2578125 65.70929688 346.515625 66.58984375 346.78125 C92.83008503 356.15920565 114.96168779 380.37495448 127.1171875 404.83203125 C134.62651018 420.8838908 139 438.27274277 139 456 C26.14 456 -86.72 456 -203 456 C-200.69487651 419.11802414 -186.80948561 388.62868661 -159 364 C-137.38433211 346 -137.38433211 346 -128 346 C-127.97421875 345.443125 -127.9484375 344.88625 -127.921875 344.3125 C-127.17411407 334.25171663 -122.81813833 328.20117981 -116 321 C-116.86625 320.773125 -117.7325 320.54625 -118.625 320.3125 C-122 319 -122 319 -124.68359375 316.453125 C-128.40606765 313.26399812 -131.70038331 313.37948203 -136.4375 313.4375 C-154.14447457 313.00764892 -170.74019496 306.96116434 -184 295 C-184.95648438 294.14792969 -185.91296875 293.29585938 -186.8984375 292.41796875 C-194.71693062 285.17944945 -199.87714386 277.28053649 -205 268 C-207.50263456 263.67726757 -209.99498081 259.94252024 -213.4375 256.3125 C-222.95787796 245.75277947 -225.13778122 233.26386271 -224.82397461 219.66357422 C-224.77894633 213.14662389 -226.10217499 207.56360881 -228.02734375 201.3671875 C-234.61403476 178.56506842 -229.74299519 151.23780972 -220 130 C-218.94877085 128.33347795 -217.86800964 126.6849774 -216.75 125.0625 C-213.95026965 120.76523946 -213.37495329 116.70333725 -212.9375 111.6875 C-211.85199893 99.24115024 -207.98350652 88.98350652 -199 80 C-197.70734434 79.11608921 -196.39489255 78.26029221 -195.0625 77.4375 C-190.71634509 74.46114488 -188.96111468 70.53735933 -186.6875 65.9375 C-176.88660901 46.1631371 -159.94847565 30.98534644 -138.98828125 23.78125 C-135.97646161 22.99384617 -133.01130346 22.4931913 -129.93896484 22.01904297 C-123.17774073 20.96488196 -118.59978442 19.78464433 -113.71875 14.7109375 C-107.64241911 8.6622263 -98.72611163 7.10992195 -90.5 6.6875 C-84.71324825 6.28665448 -79.54536555 4.76008068 -74.08203125 2.94702148 C-50.58531245 -4.80004438 -24.07068163 -5.70681609 0 0 Z " fill="#2C1B18" transform="translate(257,4)"/>
<path d="M0 0 C0.95777344 0.25394531 1.91554687 0.50789063 2.90234375 0.76953125 C26.1990856 6.84308153 52.35546142 11.61174433 75.55761719 1.93310547 C78 1 78 1 82 1 C82 5.29 82 9.58 82 14 C93.51235129 18.06318281 107.5934676 19.27903895 119.25 15.0625 C122.29450211 14.04925911 123.35820098 13.69823419 126.29296875 15.078125 C132.48880314 20.08896374 135.82653533 26.14439391 136.75 34 C136.84901934 35.33226026 136.93821733 36.66549443 137 38 C137.85464844 38.2578125 138.70929688 38.515625 139.58984375 38.78125 C165.83008503 48.15920565 187.96168779 72.37495448 200.1171875 96.83203125 C207.62651018 112.8838908 212 130.27274277 212 148 C99.14 148 -13.72 148 -130 148 C-127.69487651 111.11802414 -113.80948561 80.62868661 -86 56 C-64.38433211 38 -64.38433211 38 -55 38 C-54.97421875 37.443125 -54.9484375 36.88625 -54.921875 36.3125 C-54.3247956 28.27906812 -51.9645281 22.67303553 -46.375 16.8125 C-44.35546875 15.19824219 -44.35546875 15.19824219 -42 14 C-39.75219727 14.3684082 -39.75219727 14.3684082 -37.37890625 15.30078125 C-31.99044109 17.14005592 -27.22394201 17.46271763 -21.5625 17.375 C-20.19315308 17.36629883 -20.19315308 17.36629883 -18.79614258 17.35742188 C-12.11129526 17.22883277 -6.32637628 16.26616464 0 14 C0 9.38 0 4.76 0 0 Z " fill="#CBCBCB" transform="translate(184,312)"/>
<path d="M0 0 C6.39936078 0.5013393 12.78518847 1.07183571 19.16796875 1.75390625 C51.16252131 5.05877186 82.81766966 4.91166247 114.80859375 1.65625 C120.56488723 1.0799453 126.21818706 0.81412835 132 1 C132.24500244 1.61294922 132.49000488 2.22589844 132.74243164 2.85742188 C133.40804522 4.52044313 134.07640629 6.18236509 134.74609375 7.84375 C135.61207973 10.02355272 136.45717753 12.2117289 137.28515625 14.40625 C142.77733087 28.72568022 149.58778623 41.85666425 159 54 C161 57 161 57 160.79296875 59.48828125 C160.49326172 60.88626953 160.49326172 60.88626953 160.1875 62.3125 C159.99542969 63.23675781 159.80335938 64.16101563 159.60546875 65.11328125 C159.40566406 66.06589844 159.20585937 67.01851563 159 68 C158.09205126 72.64959323 157.83788938 77.17516048 157.7890625 81.8984375 C157.76095056 83.44662437 157.73228593 84.99480128 157.703125 86.54296875 C157.66231435 88.94253781 157.62536843 91.34193003 157.59863281 93.74169922 C157.40636714 109.68317515 157.0692846 127.76930043 145.92578125 140.33984375 C139.13897707 146.70025185 131.78159884 151.27730014 122.5 152.4375 C119 152 119 152 116.875 149.75 C115.12312365 146.64540899 113.9640196 143.32142965 112.6875 140 C109.63286282 132.52076714 105.83434894 129.06535988 98.49609375 125.86328125 C92.69161914 123.60312244 87.41387824 123.50620946 81.25 123.6875 C80.24839844 123.69716797 79.24679688 123.70683594 78.21484375 123.71679688 C74.24280192 123.77729817 70.46888857 123.92096788 66.546875 124.58203125 C63.8513389 125.02439684 62.59879524 124.65997367 60 124 C49.69879032 123.17983999 38.00993833 122.26141859 29 128 C28.06220703 128.51433594 28.06220703 128.51433594 27.10546875 129.0390625 C21.10434504 133.09210901 19.0555359 140.05098314 16.48046875 146.515625 C15 150 15 150 13 152 C4.16813954 153.30842377 -2.79565957 149.00893157 -9.81640625 143.984375 C-20.62020974 135.03219208 -23.31273027 123.45680941 -25 110 C-25.53231147 103.20222478 -25.47819951 96.3725363 -25.51123047 89.55810547 C-25.57576294 80.29867372 -26.07960572 71.92291359 -28.45898438 62.92236328 C-29.17950686 59.03037134 -28.90221891 56.31540902 -26.65234375 53.03515625 C-25.80349609 52.05869141 -25.80349609 52.05869141 -24.9375 51.0625 C-12.97832192 36.26637989 -5.96534116 17.85232136 0 0 Z " fill="#CF8A5A" transform="translate(159,111)"/>
<path d="M0 0 C0.33 0 0.66 0 1 0 C1.06316406 0.63164062 1.12632812 1.26328125 1.19140625 1.9140625 C3.22232025 16.75042374 10.94797609 28.69706332 22.69262695 37.72338867 C26.06324447 40.24970079 29.4955524 42.6637016 33 45 C33.36076355 47.89797974 33.36076355 47.89797974 33.34057617 51.65283203 C33.34093778 52.3469261 33.34129938 53.04102016 33.34167194 53.75614738 C33.33942946 56.00699401 33.31657 58.25709891 33.29296875 60.5078125 C33.2885589 61.8957483 33.28549775 63.28368907 33.28381348 64.67163086 C33.26807315 69.8228299 33.22618958 74.9739222 33.1875 80.125 C33.125625 91.63375 33.06375 103.1425 33 115 C-2.64 115 -38.28 115 -75 115 C-72.69487651 78.11802414 -58.80948561 47.62868661 -31 23 C-9.38433211 5 -9.38433211 5 0 5 C0 3.35 0 1.7 0 0 Z " fill="#CACACA" transform="translate(129,345)"/>
<path d="M0 0 C0.33 0 0.66 0 1 0 C1 1.65 1 3.3 1 5 C1.85464844 5.2578125 2.70929688 5.515625 3.58984375 5.78125 C29.83008503 15.15920565 51.96168779 39.37495448 64.1171875 63.83203125 C71.62651018 79.8838908 76 97.27274277 76 115 C40.36 115 4.72 115 -32 115 C-32.226875 103.615 -32.45375 92.23 -32.6875 80.5 C-32.78764404 76.91833984 -32.88778809 73.33667969 -32.9909668 69.64648438 C-33.04064941 65.23925781 -33.04064941 65.23925781 -33.04988098 63.16955566 C-33.06666692 61.73785692 -33.10514389 60.3063046 -33.16133118 58.87561035 C-33.61122469 46.80625197 -33.61122469 46.80625197 -29.64492798 42.35986328 C-26.84973959 40.31999756 -24.02906192 38.66462064 -21 37 C-10.8597293 29.25403519 -2.9829037 18.33462519 -0.5390625 5.59765625 C-0.29731226 3.73879294 -0.13847377 1.86939589 0 0 Z " fill="#CACACA" transform="translate(320,345)"/>
<path d="M0 0 C1.05711182 0.26844727 2.11422363 0.53689453 3.20336914 0.81347656 C26.52128795 6.70905935 52.32153364 11.6258971 75.55761719 1.93310547 C78 1 78 1 82 1 C82.09989549 6.33441895 82.17194633 11.66827721 82.21972656 17.00341797 C82.23967311 18.81308494 82.26684053 20.62268889 82.30175781 22.43212891 C82.58589135 37.54970425 81.41436569 50.12143636 71 62 C68.19754007 64.71239978 65.28763492 66.90738585 62 69 C61.21238281 69.50789063 60.42476562 70.01578125 59.61328125 70.5390625 C50.12334524 75.74181455 37.93472361 75.51849519 27.5625 73 C16.26718084 68.83241672 7.64252209 60.01713816 2.625 49.25 C0.00988945 43.11017522 -0.13762191 37.33694691 -0.09765625 30.76171875 C-0.0962413 29.88095169 -0.09482635 29.00018463 -0.09336853 28.09272766 C-0.08778937 25.29094997 -0.07524071 22.48925338 -0.0625 19.6875 C-0.05748231 17.78320428 -0.05291987 15.87890731 -0.04882812 13.97460938 C-0.03782677 9.31637519 -0.02057649 4.65820133 0 0 Z " fill="#CF8B5B" transform="translate(184,312)"/>
<path d="M0 0 C2.59239439 0.30630596 5.14568918 0.41666255 7.75488281 0.49121094 C9.16447266 0.53375 9.16447266 0.53375 10.60253906 0.57714844 C12.53983926 0.62943724 14.47737362 0.67364592 16.41503906 0.70996094 C22.70725772 0.91768205 27.34462605 1.55039848 32.20019531 5.92871094 C32.66941406 6.49847656 33.13863281 7.06824219 33.62207031 7.65527344 C34.10160156 8.21988281 34.58113281 8.78449219 35.07519531 9.36621094 C39.06403967 15.25336074 39.21317872 21.3883341 38.37207031 28.28027344 C35.4417906 36.93791804 30.26728468 43.64612587 22.37207031 48.28027344 C18.71918839 49.49790075 16.21452895 49.67103194 12.37207031 49.28027344 C9.18457031 46.90527344 9.18457031 46.90527344 6.37207031 44.28027344 C1.8918089 41.56976186 -2.53011973 41.50949678 -7.62792969 42.28027344 C-11.51502432 44.01144638 -14.62887514 46.28121889 -17.62792969 49.28027344 C-23.55869017 49.9919647 -27.90137135 48.79374171 -32.62792969 45.28027344 C-39.19113372 38.51711516 -43.66950335 31.92898987 -44.06542969 22.34277344 C-43.86949112 15.80332362 -42.47702049 11.23944275 -37.90917969 6.49511719 C-33.69281268 2.71646625 -30.57462852 1.20437324 -24.84667969 0.99902344 C-23.92242187 0.96164063 -22.99816406 0.92425781 -22.04589844 0.88574219 C-20.10058594 0.81542969 -18.15527344 0.74511719 -16.20996094 0.67480469 C-15.28570312 0.63742188 -14.36144531 0.60003906 -13.40917969 0.56152344 C-12.14170898 0.51608398 -12.14170898 0.51608398 -10.84863281 0.46972656 C-1.9953296 -0.28556843 -1.9953296 -0.28556843 0 0 Z " fill="#CD895A" transform="translate(227.6279296875,246.7197265625)"/>
<path d="M0 0 C6.39936078 0.5013393 12.78518847 1.07183571 19.16796875 1.75390625 C51.16252131 5.05877186 82.81766966 4.91166247 114.80859375 1.65625 C120.56488723 1.0799453 126.21818706 0.81412835 132 1 C132.24500244 1.61294922 132.49000488 2.22589844 132.74243164 2.85742188 C133.40804522 4.52044313 134.07640629 6.18236509 134.74609375 7.84375 C135.61207973 10.02355272 136.45717753 12.2117289 137.28515625 14.40625 C142.77733087 28.72568022 149.58778623 41.85666425 159 54 C161.78637633 58.1795645 160.79562512 60.14668677 160 65 C147.36253054 49.83503665 135.54958895 29.67683491 132 10 C122.89175602 10.66893761 122.89175602 10.66893761 113.80078125 11.53515625 C82.77765603 14.63746877 50.55630298 14.4294587 19.55126953 11.24365234 C15.33267162 10.84076615 11.10598318 10.60544184 6.875 10.375 C6.16206787 10.33511963 5.44913574 10.29523926 4.71459961 10.25415039 C3.14318987 10.16717347 1.57161543 10.08317742 0 10 C-0.3403125 11.10214844 -0.680625 12.20429687 -1.03125 13.33984375 C-7.0710281 32.44244714 -15.23786411 49.42785254 -28 65 C-28.93284186 61.90996134 -29.35623122 60.15590759 -29 57 C-27.34115945 54.12075905 -25.38082542 51.64521647 -23.3203125 49.0390625 C-12.31584044 34.62579775 -5.69198848 17.0342659 0 0 Z " fill="#AB734B" transform="translate(159,111)"/>
<path d="M0 0 C0.95777344 0.25394531 1.91554687 0.50789063 2.90234375 0.76953125 C26.1990856 6.84308153 52.35546142 11.61174433 75.55761719 1.93310547 C78 1 78 1 82 1 C82 4.96 82 8.92 82 13 C81.01 12.505 81.01 12.505 80 12 C77.93765235 12.67382347 77.93765235 12.67382347 75.625 13.75 C53.72901776 22.88122492 29.11415854 22.00575796 7.08203125 14.0234375 C4.06673041 12.8424275 4.06673041 12.8424275 1 13 C0.67 13 0.34 13 0 13 C0 8.71 0 4.42 0 0 Z " fill="#B97B51" transform="translate(184,312)"/>
<path d="M0 0 C2.6875 0.4375 2.6875 0.4375 4.9375 3.375 C5.515 4.385625 6.0925 5.39625 6.6875 6.4375 C8.22458186 7.97458186 9.65079032 7.58713484 11.79248047 7.61450195 C12.66363495 7.62733719 13.53478943 7.64017242 14.43234253 7.65339661 C15.85415329 7.66447701 15.85415329 7.66447701 17.3046875 7.67578125 C18.75683151 7.68788887 18.75683151 7.68788887 20.23831177 7.70024109 C22.29118041 7.71409884 24.34407226 7.72481339 26.39697266 7.73266602 C29.54243424 7.74989012 32.68684818 7.79376241 35.83203125 7.83789062 C37.82290891 7.84801597 39.81379553 7.85653257 41.8046875 7.86328125 C43.22042557 7.88954338 43.22042557 7.88954338 44.6647644 7.91633606 C49.65589953 8.0565698 49.65589953 8.0565698 53.74267578 5.59838867 C54.77434466 3.3274949 54.77434466 3.3274949 55.6875 0.4375 C58.1625 0.9325 58.1625 0.9325 60.6875 1.4375 C61.66831895 8.63017232 58.56055143 14.48089813 54.6875 20.4375 C51.98046875 22.80078125 51.98046875 22.80078125 49.6875 24.4375 C48.63691406 23.78652344 47.58632812 23.13554687 46.50390625 22.46484375 C40.71475892 19.57855304 34.96959804 19.88894267 28.625 20 C26.90700195 19.98936523 26.90700195 19.98936523 25.15429688 19.97851562 C18.83240841 20.02604862 14.31004514 20.56138125 8.6875 23.4375 C7.6975 23.4375 6.7075 23.4375 5.6875 23.4375 C0.60611884 18.35611884 -3.50381383 11.8147078 -3.625 4.4375 C-3.22634262 0.61038914 -3.22634262 0.61038914 0 0 Z " fill="#462F22" transform="translate(196.3125,251.5625)"/>
<path d="M0 0 C14.24629543 9.06582436 14.24629543 9.06582436 15.73730469 12.89208984 C16.3464608 17.7800581 16.22816489 22.70664104 16.25 27.625 C16.270625 28.76324219 16.29125 29.90148437 16.3125 31.07421875 C16.34904201 39.03124049 16.09016766 46.90779052 11.1328125 53.47265625 C10.47023438 53.99730469 9.80765625 54.52195313 9.125 55.0625 C8.46757812 55.61035156 7.81015625 56.15820312 7.1328125 56.72265625 C5 58 5 58 0 59 C0 39.53 0 20.06 0 0 Z " fill="#CF8A5A" transform="translate(322,171)"/>
<path d="M0 0 C0.33 0 0.66 0 1 0 C1 19.47 1 38.94 1 59 C-3.53187233 58.09362553 -4.82579318 57.81183902 -8.125 55.0625 C-8.78757812 54.53785156 -9.45015625 54.01320312 -10.1328125 53.47265625 C-15.73051142 46.05980391 -15.4667616 36.70827772 -15.375 27.8125 C-15.38660156 26.67619141 -15.39820312 25.53988281 -15.41015625 24.36914062 C-15.38858926 18.20457595 -15.27775938 13.31296946 -12 8 C-9.58984375 6.07421875 -9.58984375 6.07421875 -6.9375 4.6875 C-3.20352146 2.7068521 -3.20352146 2.7068521 0 0 Z " fill="#CF8A5A" transform="translate(127,171)"/>
<path d="M0 0 C2.51511027 0.41918505 4.63060901 0.79907709 6.88276672 2.02409363 C9.31447328 3.14495166 10.95839187 3.24536919 13.62573242 3.23950195 C14.53735641 3.24323318 15.44898041 3.24696442 16.38822937 3.25080872 C17.36741837 3.24667465 18.34660736 3.24254059 19.35546875 3.23828125 C21.44336583 3.25370669 23.53125657 3.27001074 25.61914062 3.28710938 C28.89963808 3.30352534 32.17967014 3.31251694 35.46020508 3.30541992 C38.63415619 3.30278673 41.80670562 3.33102129 44.98046875 3.36328125 C45.94953659 3.35307449 46.91860443 3.34286774 47.91703796 3.33235168 C54.78088765 3.42995786 59.32619439 5.15598096 65 9 C65 10.32 65 11.64 65 13 C59.19565014 15.65341708 54.05312736 17.2655631 47.62890625 17.140625 C46.40623047 17.12193359 45.18355469 17.10324219 43.92382812 17.08398438 C42.62896484 17.05626953 41.33410156 17.02855469 40 17 C38.66082587 16.98576043 37.32163039 16.97341136 35.98242188 16.96289062 C32.53963181 16.93307669 29.09850136 16.87086401 25.65649414 16.79248047 C24.24809637 16.76390857 22.83952743 16.74287875 21.4309082 16.72900391 C6.67030115 16.57632552 6.67030115 16.57632552 1 12 C-1.44576827 8.33134759 -1.23607254 6.32799657 -1 2 C-0.67 1.34 -0.34 0.68 0 0 Z " fill="#563925" transform="translate(241,156)"/>
<path d="M0 0 C1.56935594 3.13871188 1.35201103 5.53855822 1 9 C-2.17313686 13.19973996 -4.98880082 14.69578329 -10 16 C-13.35587017 16.36024148 -16.70531369 16.46652652 -20.078125 16.5546875 C-21.0447406 16.58354034 -22.0113562 16.61239319 -23.00726318 16.64212036 C-25.04784039 16.69902815 -27.08856553 16.75083231 -29.12939453 16.79785156 C-32.22667467 16.87442335 -35.3217324 16.98339886 -38.41796875 17.09375 C-40.40880346 17.14522916 -42.3996894 17.1947705 -44.390625 17.2421875 C-45.30450989 17.27843231 -46.21839478 17.31467712 -47.15997314 17.35202026 C-53.86482257 17.45758128 -58.96754858 15.88067868 -65 13 C-65 11.68 -65 10.36 -65 9 C-58.36056389 4.52880265 -53.23876982 3.28554261 -45.3046875 3.3984375 C-43.81716476 3.38642807 -43.81716476 3.38642807 -42.29959106 3.37417603 C-39.15763566 3.3512592 -36.01698813 3.36051412 -32.875 3.375 C-29.72611739 3.37885833 -26.5778047 3.37533549 -23.4289856 3.35440063 C-21.47790904 3.34239016 -19.52667158 3.34484976 -17.57565308 3.36410522 C-11.19638504 3.33794267 -5.92390678 0 0 0 Z " fill="#563A25" transform="translate(209,156)"/>
<path d="M0 0 C0 21.12 0 42.24 0 64 C-3.96 64 -7.92 64 -12 64 C-12 44.2 -12 24.4 -12 4 C-2 0 -2 0 0 0 Z " fill="#F3F3F3" transform="translate(288,396)"/>
<path d="M0 0 C10 3 10 3 12 4 C12 23.8 12 43.6 12 64 C8.04 64 4.08 64 0 64 C0 42.88 0 21.76 0 0 Z " fill="#F3F3F3" transform="translate(162,396)"/>
<path d="M0 0 C0.33 0 0.66 0 1 0 C1.06316406 0.63164062 1.12632812 1.26328125 1.19140625 1.9140625 C3.22232025 16.75042374 10.94797609 28.69706332 22.69262695 37.72338867 C26.06324447 40.24970079 29.4955524 42.6637016 33 45 C33.1875 47.625 33.1875 47.625 33 50 C27.96169468 49.43845513 23.84944585 47.77430696 19.375 45.5 C18.6749585 45.14542725 17.97491699 44.79085449 17.25366211 44.42553711 C4.96455744 38.01255047 -7.97721682 28.83114677 -14 16 C-14 15.34 -14 14.68 -14 14 C-14.99 13.67 -15.98 13.34 -17 13 C-14.54429825 11.66161267 -12.08570084 10.32913768 -9.625 9 C-8.92632812 8.6184375 -8.22765625 8.236875 -7.5078125 7.84375 C-2.2265625 5 -2.2265625 5 0 5 C0 3.35 0 1.7 0 0 Z " fill="#A9A8A8" transform="translate(129,345)"/>
<path d="M0 0 C0.33 0 0.66 0 1 0 C1 1.65 1 3.3 1 5 C1.804375 5.226875 2.60875 5.45375 3.4375 5.6875 C7.91285739 7.33631588 11.88721318 9.60544412 16 12 C12.69583664 25.21665344 0.51755129 34.18209091 -10.51953125 40.953125 C-25.67927179 50 -25.67927179 50 -32 50 C-32.30859375 47.73828125 -32.30859375 47.73828125 -32 45 C-29.91015625 43.04296875 -29.91015625 43.04296875 -27.0625 41.1875 C-14.24625214 32.36913177 -3.58989706 21.49819229 -0.5390625 5.59765625 C-0.29731226 3.73879294 -0.13847377 1.86939589 0 0 Z " fill="#A9A9A9" transform="translate(320,345)"/>
<path d="M0 0 C13.2 0 26.4 0 40 0 C38.875 6.75 38.875 6.75 36 9 C38.31 9.33 40.62 9.66 43 10 C43 10.33 43 10.66 43 11 C41.04707031 11.09087891 41.04707031 11.09087891 39.0546875 11.18359375 C37.32811601 11.26804562 35.601554 11.35269126 33.875 11.4375 C32.59109375 11.49647461 32.59109375 11.49647461 31.28125 11.55664062 C27.66477058 11.7374646 24.20348349 11.96388286 20.6328125 12.59765625 C17.90501254 13.01451589 16.61575668 12.68125658 14 12 C12.63323368 11.86070644 11.2625433 11.75634699 9.890625 11.68359375 C9.13652344 11.64169922 8.38242188 11.59980469 7.60546875 11.55664062 C6.43951172 11.49766602 6.43951172 11.49766602 5.25 11.4375 C4.06083984 11.37272461 4.06083984 11.37272461 2.84765625 11.30664062 C0.89862185 11.20097009 -1.05066748 11.10002034 -3 11 C-3 10.67 -3 10.34 -3 10 C0.465 9.505 0.465 9.505 4 9 C3.34 8.2575 2.68 7.515 2 6.75 C0 4 0 4 0 0 Z " fill="#AC734B" transform="translate(205,223)"/>
<path d="M0 0 C1.14146484 -0.01998047 2.28292969 -0.03996094 3.45898438 -0.06054688 C10.47246977 -0.05649518 15.07719401 0.72881347 21.0625 4.4375 C20.0625 7.4375 20.0625 7.4375 17.8828125 8.7890625 C16.99335938 9.20929688 16.10390625 9.62953125 15.1875 10.0625 C14.30320313 10.48789062 13.41890625 10.91328125 12.5078125 11.3515625 C5.52640802 14.45193062 -2.56878226 14.58506955 -9.94140625 12.6484375 C-14.07226742 11.0354932 -17.45124868 9.1902188 -20.9375 6.4375 C-19.9375 3.4375 -19.9375 3.4375 -17.18359375 1.77734375 C-11.66439891 -0.3748748 -5.83744649 -0.03613501 0 0 Z " fill="#FC4E6B" transform="translate(224.9375,270.5625)"/>
<path d="M0 0 C17.16 0 34.32 0 52 0 C50.79743143 6.01284284 50.79743143 6.01284284 48 8 C45.9957428 8.38768005 45.9957428 8.38768005 43.68383789 8.40405273 C42.3821743 8.42307899 42.3821743 8.42307899 41.05421448 8.44248962 C40.11980026 8.43955399 39.18538605 8.43661835 38.22265625 8.43359375 C37.25976181 8.4388356 36.29686737 8.44407745 35.30479431 8.44947815 C33.26806604 8.45590251 31.23130069 8.45455601 29.19458008 8.44604492 C26.07761529 8.43754124 22.96248648 8.46628065 19.84570312 8.49804688 C17.86718805 8.49965911 15.88866973 8.49908093 13.91015625 8.49609375 C12.51157127 8.51294472 12.51157127 8.51294472 11.08473206 8.53013611 C4.67819924 8.46112997 4.67819924 8.46112997 1.38061523 6.21899414 C0 4 0 4 0 0 Z " fill="#FEFEFE" transform="translate(200,252)"/>
<path d="M0 0 C3.15275268 2.02942938 4.91776896 4.14410233 6.984375 7.27734375 C6.984375 8.26734375 6.984375 9.25734375 6.984375 10.27734375 C4.26146495 9.66498625 2.18993492 8.90954742 -0.390625 7.71484375 C-6.89736385 5.2534931 -15.00392169 4.87111694 -21.58984375 7.1796875 C-23.43799858 8.13963483 -25.23279497 9.20091807 -27.015625 10.27734375 C-28.005625 10.27734375 -28.995625 10.27734375 -30.015625 10.27734375 C-29.93364915 7.49016486 -29.45327105 5.75981608 -27.56640625 3.6796875 C-19.22532372 -3.68434849 -10.12855537 -5.04631925 0 0 Z " fill="#593C26" transform="translate(187.015625,184.72265625)"/>
<path d="M0 0 C2.625 2.625 2.625 2.625 4 5 C4 5.99 4 6.98 4 8 C1.26697173 7.38402208 -0.83964378 6.61834373 -3.4375 5.4375 C-10.36328357 2.80958586 -18.63671643 2.80958586 -25.5625 5.4375 C-27.2640625 6.2109375 -27.2640625 6.2109375 -29 7 C-30.32690835 7.35805463 -31.65926268 7.69782069 -33 8 C-32.91863476 5.23358182 -32.4328274 3.48902323 -30.5859375 1.40234375 C-20.9559209 -7.2307328 -10.55150894 -6.95225095 0 0 Z " fill="#593C26" transform="translate(289,187)"/>
<path d="M0 0 C1.7541123 1.07666203 3.50312587 2.16163339 5.25 3.25 C6.71179688 4.15492188 6.71179688 4.15492188 8.203125 5.078125 C14.43665003 9.36149695 14.43665003 9.36149695 15.6003418 12.74609375 C16.09888206 15.55765376 16.11165582 18.22221231 16.09765625 21.078125 C16.09443359 22.23828125 16.09121094 23.3984375 16.08789062 24.59375 C16.07951172 25.8003125 16.07113281 27.006875 16.0625 28.25 C16.05798828 29.47203125 16.05347656 30.6940625 16.04882812 31.953125 C16.03704815 34.96879946 16.02059853 37.98437498 16 41 C15.67 41 15.34 41 15 41 C15 33.08 15 25.16 15 17 C13.35 16.67 11.7 16.34 10 16 C7.76171875 14.58984375 7.76171875 14.58984375 5.6875 12.9375 C4.99011719 12.38964844 4.29273438 11.84179688 3.57421875 11.27734375 C3.05472656 10.85582031 2.53523438 10.43429688 2 10 C1.34 10.66 0.68 11.32 0 12 C0 8.04 0 4.08 0 0 Z " fill="#A26C47" transform="translate(322,171)"/>
<path d="M0 0 C0.33 0 0.66 0 1 0 C1 3.96 1 7.92 1 12 C0.34 11.34 -0.32 10.68 -1 10 C-1.51949219 10.42152344 -2.03898437 10.84304687 -2.57421875 11.27734375 C-3.27160156 11.82519531 -3.96898438 12.37304688 -4.6875 12.9375 C-5.37199219 13.48277344 -6.05648437 14.02804688 -6.76171875 14.58984375 C-9 16 -9 16 -14 17 C-14 24.92 -14 32.84 -14 41 C-14.33 41 -14.66 41 -15 41 C-15.08760181 36.81263332 -15.14059435 32.62550469 -15.1875 28.4375 C-15.21263672 27.25607422 -15.23777344 26.07464844 -15.26367188 24.85742188 C-15.36046599 13.33892216 -15.36046599 13.33892216 -12 8 C-9.58984375 6.07421875 -9.58984375 6.07421875 -6.9375 4.6875 C-3.20352146 2.7068521 -3.20352146 2.7068521 0 0 Z " fill="#A26C47" transform="translate(127,171)"/>
<path d="M0 0 C0 0.99 0 1.98 0 3 C-23.15625 9.4375 -23.15625 9.4375 -33 9 C-33 8.67 -33 8.34 -33 8 C-31.75605469 7.75765625 -30.51210937 7.5153125 -29.23046875 7.265625 C-20.92979103 5.60749123 -12.89253983 3.96844993 -5.03125 0.734375 C-3 0 -3 0 0 0 Z " fill="#B4B4B4" transform="translate(276,397)"/>
<path d="M0 0 C3.60499163 0.63655708 6.87704705 1.62132693 10.3125 2.875 C17.72891256 5.41195011 25.29054323 6.70856816 33 8 C33 8.33 33 8.66 33 9 C22.55321431 8.63085563 9.48826875 7.74413437 0 3 C0 2.01 0 1.02 0 0 Z " fill="#B1B1B1" transform="translate(174,397)"/>
<path d="M0 0 C0 0.99 0 1.98 0 3 C-2.31 3.33 -4.62 3.66 -7 4 C-3.375 0 -3.375 0 0 0 Z " fill="#ACACAC" transform="translate(276,397)"/>
</svg>
